/* XPM */
static char * coin_xpm[] = {
"64 64 8 1",
" 	c #514047",
".	c #77514C",
"+	c #8D5D57",
"@	c #A19B36",
"#	c #000000",
"$	c #FFFFFF",
"%	c #ADADAD",
"&	c #59413E",
"    ....................................................        ",
"    ....................................................        ",
"    ....................................................        ",
"    ....................................................        ",
"........................................................++++    ",
"........................................................++++    ",
"........................................................++++    ",
"........................................................++++    ",
"........................................................++++    ",
"........................................................++++    ",
"........................................................++++    ",
"........................................................++++    ",
"............@@@@@@@@....................................++++    ",
"............@@@@@@@@....................................++++    ",
"............@@@@@@@@....................................++++    ",
"............@@@@@@@@....................................++++    ",
"........@@@@########@@@@................................++++    ",
"........@@@@########@@@@................................++++    ",
"........@@@@########@@@@................................++++    ",
"........@@@@########@@@@................................++++    ",
"....@@@@####$$$$$$$$####@@@@@@@@@@@@@@@@@@@@@@@@@@@@@@@@++++    ",
"....@@@@####$$$$$$$$####@@@@@@@@@@@@@@@@@@@@@@@@@@@@@@@@++++    ",
"....@@@@####$$$$$$$$####@@@@@@@@@@@@@@@@@@@@@@@@@@@@@@@@++++    ",
"....@@@@####$$$$$$$$####@@@@@@@@@@@@@@@@@@@@@@@@@@@@@@@@++++    ",
"@@@@####$$$$########$$$$################################@@@@    ",
"@@@@####$$$$########$$$$################################@@@@    ",
"@@@@####$$$$########$$$$################################@@@@    ",
"@@@@####$$$$########$$$$################################@@@@    ",
"@@@@####%%%%########%%%%$$$$$$$$$$$$$$$$$$$$$$$$$$$$####@@@@    ",
"@@@@####%%%%########%%%%$$$$$$$$$$$$$$$$$$$$$$$$$$$$####@@@@    ",
"@@@@####%%%%########%%%%$$$$$$$$$$$$$$$$$$$$$$$$$$$$####@@@@    ",
"@@@@####%%%%########%%%%$$$$$$$$$$$$$$$$$$$$$$$$$$$$####@@@@    ",
"@@@@####%%%%########%%%%################$$$$####$$$$####@@@@    ",
"@@@@####%%%%########%%%%################$$$$####$$$$####@@@@    ",
"@@@@####%%%%########%%%%################$$$$####$$$$####@@@@    ",
"@@@@####%%%%########%%%%################$$$$####$$$$####@@@@    ",
"....@@@@####%%%%%%%%####@@@@@@@@@@@@####################@@@@    ",
"....@@@@####%%%%%%%%####@@@@@@@@@@@@####################@@@@    ",
"....@@@@####%%%%%%%%####@@@@@@@@@@@@####################@@@@    ",
"....@@@@####%%%%%%%%####@@@@@@@@@@@@####################@@@@    ",
"........@@@@########@@@@............@@@@@@@@@@@@@@@@@@@@++++    ",
"........@@@@########@@@@............@@@@@@@@@@@@@@@@@@@@++++    ",
"........@@@@########@@@@............@@@@@@@@@@@@@@@@@@@@++++    ",
"........@@@@########@@@@............@@@@@@@@@@@@@@@@@@@@++++    ",
"............@@@@@@@@....................................++++    ",
"............@@@@@@@@....................................++++    ",
"............@@@@@@@@....................................++++    ",
"............@@@@@@@@....................................++++    ",
"........................................................++++    ",
"........................................................++++    ",
"........................................................++++    ",
"........................................................++++    ",
"....................................................++++++++    ",
"....................................................++++++++    ",
"....................................................++++++++    ",
"....................................................++++++++    ",
"&&&&++++++++++++++++++++++++++++++++++++++++++++++++++++&&&&    ",
"&&&&++++++++++++++++++++++++++++++++++++++++++++++++++++&&&&    ",
"&&&&++++++++++++++++++++++++++++++++++++++++++++++++++++&&&&    ",
"&&&&++++++++++++++++++++++++++++++++++++++++++++++++++++&&&&    ",
"    &&&&&&&&&&&&&&&&&&&&&&&&&&&&&&&&&&&&&&&&&&&&&&&&&&&&        ",
"    &&&&&&&&&&&&&&&&&&&&&&&&&&&&&&&&&&&&&&&&&&&&&&&&&&&&        ",
"    &&&&&&&&&&&&&&&&&&&&&&&&&&&&&&&&&&&&&&&&&&&&&&&&&&&&        ",
"    &&&&&&&&&&&&&&&&&&&&&&&&&&&&&&&&&&&&&&&&&&&&&&&&&&&&        "};
