/* XPM */
static char * exit_xpm[] = {
"64 64 9 1",
" 	c #514047",
".	c #77514C",
"+	c #000000",
"@	c #704844",
"#	c #8D5D57",
"$	c #A4A4A4",
"%	c #63413D",
"&	c #898989",
"*	c #4D3533",
"    ............++++++++++++++++++++++++++++++++........        ",
"    ............++++++++++++++++++++++++++++++++........        ",
"    ............++++++++++++++++++++++++++++++++........        ",
"    ............++++++++++++++++++++++++++++++++........        ",
"........++++++++@@@@@@@@@@@@@@@@@@@@@@@@@@@@@@@@++++++++####    ",
"........++++++++@@@@@@@@@@@@@@@@@@@@@@@@@@@@@@@@++++++++####    ",
"........++++++++@@@@@@@@@@@@@@@@@@@@@@@@@@@@@@@@++++++++####    ",
"........++++++++@@@@@@@@@@@@@@@@@@@@@@@@@@@@@@@@++++++++####    ",
"....++++$$$$%%%%@@@@@@@@@@@@@@@@@@@@@@@@@@@@@@@@%%%%&&&&++++    ",
"....++++$$$$%%%%@@@@@@@@@@@@@@@@@@@@@@@@@@@@@@@@%%%%&&&&++++    ",
"....++++$$$$%%%%@@@@@@@@@@@@@@@@@@@@@@@@@@@@@@@@%%%%&&&&++++    ",
"....++++$$$$%%%%@@@@@@@@@@@@@@@@@@@@@@@@@@@@@@@@%%%%&&&&++++    ",
"++++$$$$$$$$%%%%@@@@@@@@@@@@@@@@@@@@@@@@@@@@@@@@%%%%&&&&&&&&++++",
"++++$$$$$$$$%%%%@@@@@@@@@@@@@@@@@@@@@@@@@@@@@@@@%%%%&&&&&&&&++++",
"++++$$$$$$$$%%%%@@@@@@@@@@@@@@@@@@@@@@@@@@@@@@@@%%%%&&&&&&&&++++",
"++++$$$$$$$$%%%%@@@@@@@@@@@@@@@@@@@@@@@@@@@@@@@@%%%%&&&&&&&&++++",
"++++$$$$$$$$%%%%@@@@@@@@@@@@@@@@@@@@@@@@@@@@@@@@%%%%&&&&&&&&++++",
"++++$$$$$$$$%%%%@@@@@@@@@@@@@@@@@@@@@@@@@@@@@@@@%%%%&&&&&&&&++++",
"++++$$$$$$$$%%%%@@@@@@@@@@@@@@@@@@@@@@@@@@@@@@@@%%%%&&&&&&&&++++",
"++++$$$$$$$$%%%%@@@@@@@@@@@@@@@@@@@@@@@@@@@@@@@@%%%%&&&&&&&&++++",
"++++&&&&&&&&%%%%@@@@@@@@@@@@@@@@@@@@@@@@@@@@@@@@%%%%$$$$$$$$++++",
"++++&&&&&&&&%%%%@@@@@@@@@@@@@@@@@@@@@@@@@@@@@@@@%%%%$$$$$$$$++++",
"++++&&&&&&&&%%%%@@@@@@@@@@@@@@@@@@@@@@@@@@@@@@@@%%%%$$$$$$$$++++",
"++++&&&&&&&&%%%%@@@@@@@@@@@@@@@@@@@@@@@@@@@@@@@@%%%%$$$$$$$$++++",
"++++&&&&&&&&%%%%@@@@@@@@@@@@@@@@@@@@@@@@@@@@@@@@%%%%$$$$$$$$++++",
"++++&&&&&&&&%%%%@@@@@@@@@@@@@@@@@@@@@@@@@@@@@@@@%%%%$$$$$$$$++++",
"++++&&&&&&&&%%%%@@@@@@@@@@@@@@@@@@@@@@@@@@@@@@@@%%%%$$$$$$$$++++",
"++++&&&&&&&&%%%%@@@@@@@@@@@@@@@@@@@@@@@@@@@@@@@@%%%%$$$$$$$$++++",
"++++&&&&&&&&%%%%%%%%@@@@@@@@@@@@@@@@@@@@@@@@%%%%%%%%$$$$$$$$++++",
"++++&&&&&&&&%%%%%%%%@@@@@@@@@@@@@@@@@@@@@@@@%%%%%%%%$$$$$$$$++++",
"++++&&&&&&&&%%%%%%%%@@@@@@@@@@@@@@@@@@@@@@@@%%%%%%%%$$$$$$$$++++",
"++++&&&&&&&&%%%%%%%%@@@@@@@@@@@@@@@@@@@@@@@@%%%%%%%%$$$$$$$$++++",
"++++$$$$$$$$%%%%%%%%%%%%%%%%$$$$$$$$%%%%%%%%%%%%%%%%$$$$$$$$++++",
"++++$$$$$$$$%%%%%%%%%%%%%%%%$$$$$$$$%%%%%%%%%%%%%%%%$$$$$$$$++++",
"++++$$$$$$$$%%%%%%%%%%%%%%%%$$$$$$$$%%%%%%%%%%%%%%%%$$$$$$$$++++",
"++++$$$$$$$$%%%%%%%%%%%%%%%%$$$$$$$$%%%%%%%%%%%%%%%%$$$$$$$$++++",
"++++&&&&&&&&&&&&&&&&&&&&$$$$$$$$$$$$$$$$&&&&&&&&&&&&&&&&&&&&++++",
"++++&&&&&&&&&&&&&&&&&&&&$$$$$$$$$$$$$$$$&&&&&&&&&&&&&&&&&&&&++++",
"++++&&&&&&&&&&&&&&&&&&&&$$$$$$$$$$$$$$$$&&&&&&&&&&&&&&&&&&&&++++",
"++++&&&&&&&&&&&&&&&&&&&&$$$$$$$$$$$$$$$$&&&&&&&&&&&&&&&&&&&&++++",
"++++&&&&&&&&********@@@@$$$$++++++++$$$$@@@@********&&&&&&&&++++",
"++++&&&&&&&&********@@@@$$$$++++++++$$$$@@@@********&&&&&&&&++++",
"++++&&&&&&&&********@@@@$$$$++++++++$$$$@@@@********&&&&&&&&++++",
"++++&&&&&&&&********@@@@$$$$++++++++$$$$@@@@********&&&&&&&&++++",
"++++&&&&&&&&****@@@@@@@@@@@@$$$$$$$$@@@@@@@@@@@@****&&&&&&&&++++",
"++++&&&&&&&&****@@@@@@@@@@@@$$$$$$$$@@@@@@@@@@@@****&&&&&&&&++++",
"++++&&&&&&&&****@@@@@@@@@@@@$$$$$$$$@@@@@@@@@@@@****&&&&&&&&++++",
"++++&&&&&&&&****@@@@@@@@@@@@$$$$$$$$@@@@@@@@@@@@****&&&&&&&&++++",
"++++&&&&&&&&****@@@@@@@@@@@@@@@@@@@@@@@@@@@@@@@@****&&&&&&&&++++",
"++++&&&&&&&&****@@@@@@@@@@@@@@@@@@@@@@@@@@@@@@@@****&&&&&&&&++++",
"++++&&&&&&&&****@@@@@@@@@@@@@@@@@@@@@@@@@@@@@@@@****&&&&&&&&++++",
"++++&&&&&&&&****@@@@@@@@@@@@@@@@@@@@@@@@@@@@@@@@****&&&&&&&&++++",
"++++&&&&&&&&****@@@@@@@@@@@@@@@@@@@@@@@@@@@@@@@@****&&&&&&&&++++",
"++++&&&&&&&&****@@@@@@@@@@@@@@@@@@@@@@@@@@@@@@@@****&&&&&&&&++++",
"++++&&&&&&&&****@@@@@@@@@@@@@@@@@@@@@@@@@@@@@@@@****&&&&&&&&++++",
"++++&&&&&&&&****@@@@@@@@@@@@@@@@@@@@@@@@@@@@@@@@****&&&&&&&&++++",
"++++&&&&&&&&********@@@@@@@@@@@@@@@@@@@@@@@@********&&&&&&&&++++",
"++++&&&&&&&&********@@@@@@@@@@@@@@@@@@@@@@@@********&&&&&&&&++++",
"++++&&&&&&&&********@@@@@@@@@@@@@@@@@@@@@@@@********&&&&&&&&++++",
"++++&&&&&&&&********@@@@@@@@@@@@@@@@@@@@@@@@********&&&&&&&&++++",
"    ++++++++++++++++++++++++++++++++++++++++++++++++++++++++    ",
"    ++++++++++++++++++++++++++++++++++++++++++++++++++++++++    ",
"    ++++++++++++++++++++++++++++++++++++++++++++++++++++++++    ",
"    ++++++++++++++++++++++++++++++++++++++++++++++++++++++++    "};
