/* XPM */
static char * left_sprite_char_xpm[] = {
"64 64 12 1",
" 	c #514047",
".	c #77514C",
"+	c #060608",
"@	c #AC3232",
"#	c #8D5D57",
"$	c #847E87",
"%	c #9BADB7",
"&	c #FFFFFF",
"*	c #DF7126",
"=	c #61413D",
"-	c #734B46",
";	c #59413E",
"    ............................++++++++++++............        ",
"    ............................++++++++++++............        ",
"    ............................++++++++++++............        ",
"    ............................++++++++++++............        ",
"............................++++@@@@@@@@++++............####    ",
"............................++++@@@@@@@@++++............####    ",
"............................++++@@@@@@@@++++............####    ",
"............................++++@@@@@@@@++++............####    ",
"................++++++++++++++++$$$$++++................####    ",
"................++++++++++++++++$$$$++++................####    ",
"................++++++++++++++++$$$$++++................####    ",
"................++++++++++++++++$$$$++++................####    ",
"............++++%%%%%%%%%%%%%%%%$$$$$$$$++++............####    ",
"............++++%%%%%%%%%%%%%%%%$$$$$$$$++++............####    ",
"............++++%%%%%%%%%%%%%%%%$$$$$$$$++++............####    ",
"............++++%%%%%%%%%%%%%%%%$$$$$$$$++++............####    ",
"............++++%%%%%%%%%%%%%%%%%%%%%%%%$$$$++++........####    ",
"............++++%%%%%%%%%%%%%%%%%%%%%%%%$$$$++++........####    ",
"............++++%%%%%%%%%%%%%%%%%%%%%%%%$$$$++++........####    ",
"............++++%%%%%%%%%%%%%%%%%%%%%%%%$$$$++++........####    ",
"............++++&&&&&&&&&&&&&&&&&&&&%%%%%%%%++++........####    ",
"............++++&&&&&&&&&&&&&&&&&&&&%%%%%%%%++++........####    ",
"............++++&&&&&&&&&&&&&&&&&&&&%%%%%%%%++++........####    ",
"............++++&&&&&&&&&&&&&&&&&&&&%%%%%%%%++++........####    ",
"............++++++++++++++++++++&&&&%%%%%%%%++++........####    ",
"............++++++++++++++++++++&&&&%%%%%%%%++++........####    ",
"............++++++++++++++++++++&&&&%%%%%%%%++++........####    ",
"............++++++++++++++++++++&&&&%%%%%%%%++++........####    ",
"............++++&&&&++++&&&&&&&&&&&&%%%%$$$$++++........####    ",
"............++++&&&&++++&&&&&&&&&&&&%%%%$$$$++++........####    ",
"............++++&&&&++++&&&&&&&&&&&&%%%%$$$$++++........####    ",
"............++++&&&&++++&&&&&&&&&&&&%%%%$$$$++++........####    ",
"............++++@@@@****@@@@@@@@$$$$$$$$++++++++........####    ",
"............++++@@@@****@@@@@@@@$$$$$$$$++++++++........####    ",
"............++++@@@@****@@@@@@@@$$$$$$$$++++++++........####    ",
"............++++@@@@****@@@@@@@@$$$$$$$$++++++++........####    ",
"............++++$$$$$$$$$$$$$$$$@@@@@@@@++++............####    ",
"............++++$$$$$$$$$$$$$$$$@@@@@@@@++++............####    ",
"............++++$$$$$$$$$$$$$$$$@@@@@@@@++++............####    ",
"............++++$$$$$$$$$$$$$$$$@@@@@@@@++++............####    ",
"............++++%%%%%%%%%%%%%%%%$$$$$$$$++++@@@@@@@@....####    ",
"............++++%%%%%%%%%%%%%%%%$$$$$$$$++++@@@@@@@@....####    ",
"............++++%%%%%%%%%%%%%%%%$$$$$$$$++++@@@@@@@@....####    ",
"............++++%%%%%%%%%%%%%%%%$$$$$$$$++++@@@@@@@@....####    ",
"........====++++$$$$++++++++++++$$$$$$$$++++@@@@@@@@....####    ",
"........====++++$$$$++++++++++++$$$$$$$$++++@@@@@@@@....####    ",
"........====++++$$$$++++++++++++$$$$$$$$++++@@@@@@@@....####    ",
"........====++++$$$$++++++++++++$$$$$$$$++++@@@@@@@@....####    ",
"....============++++$$$$++++@@@@++++$$$$++++@@@@========####    ",
"....============++++$$$$++++@@@@++++$$$$++++@@@@========####    ",
"....============++++$$$$++++@@@@++++$$$$++++@@@@========####    ",
"....============++++$$$$++++@@@@++++$$$$++++@@@@========####    ",
"....================++++++++========++++++++========----####    ",
"....================++++++++========++++++++========----####    ",
"....================++++++++========++++++++========----####    ",
"....================++++++++========++++++++========----####    ",
";;;;####--------------------------------------------####;;;;    ",
";;;;####--------------------------------------------####;;;;    ",
";;;;####--------------------------------------------####;;;;    ",
";;;;####--------------------------------------------####;;;;    ",
"    ;;;;;;;;;;;;;;;;;;;;;;;;;;;;;;;;;;;;;;;;;;;;;;;;;;;;        ",
"    ;;;;;;;;;;;;;;;;;;;;;;;;;;;;;;;;;;;;;;;;;;;;;;;;;;;;        ",
"    ;;;;;;;;;;;;;;;;;;;;;;;;;;;;;;;;;;;;;;;;;;;;;;;;;;;;        ",
"    ;;;;;;;;;;;;;;;;;;;;;;;;;;;;;;;;;;;;;;;;;;;;;;;;;;;;        "};
