/* XPM */
static char * wall_xpm[] = {
"64 64 4 1",
" 	c #353E50",
".	c #434F65",
"+	c #6F7F9F",
"@	c #5A6988",
"                            ....                                ",
"                            ....                                ",
"                            ....                                ",
"                            ....                                ",
"++++++++++++++++++++++++++++....++++++++++++++++++++++++++++++++",
"++++++++++++++++++++++++++++....++++++++++++++++++++++++++++++++",
"++++++++++++++++++++++++++++....++++++++++++++++++++++++++++++++",
"++++++++++++++++++++++++++++....++++++++++++++++++++++++++++++++",
"++++@@@@@@@@@@@@@@@@@@@@++++....++++@@@@@@@@@@@@@@@@@@@@@@@@++++",
"++++@@@@@@@@@@@@@@@@@@@@++++....++++@@@@@@@@@@@@@@@@@@@@@@@@++++",
"++++@@@@@@@@@@@@@@@@@@@@++++....++++@@@@@@@@@@@@@@@@@@@@@@@@++++",
"++++@@@@@@@@@@@@@@@@@@@@++++....++++@@@@@@@@@@@@@@@@@@@@@@@@++++",
"                ....                            ....            ",
"                ....                            ....            ",
"                ....                            ....            ",
"                ....                            ....            ",
"++++++++++++++++....++++++++++++++++++++++++++++....++++++++++++",
"++++++++++++++++....++++++++++++++++++++++++++++....++++++++++++",
"++++++++++++++++....++++++++++++++++++++++++++++....++++++++++++",
"++++++++++++++++....++++++++++++++++++++++++++++....++++++++++++",
"++++@@@@@@@@++++....++++@@@@@@@@@@@@@@@@@@@@++++....++++@@@@@@@@",
"++++@@@@@@@@++++....++++@@@@@@@@@@@@@@@@@@@@++++....++++@@@@@@@@",
"++++@@@@@@@@++++....++++@@@@@@@@@@@@@@@@@@@@++++....++++@@@@@@@@",
"++++@@@@@@@@++++....++++@@@@@@@@@@@@@@@@@@@@++++....++++@@@@@@@@",
"@@@@@@@@@@@@@@@@....@@@@@@@@@@@@@@@@@@@@@@@@@@@@....@@@@@@@@@@@@",
"@@@@@@@@@@@@@@@@....@@@@@@@@@@@@@@@@@@@@@@@@@@@@....@@@@@@@@@@@@",
"@@@@@@@@@@@@@@@@....@@@@@@@@@@@@@@@@@@@@@@@@@@@@....@@@@@@@@@@@@",
"@@@@@@@@@@@@@@@@....@@@@@@@@@@@@@@@@@@@@@@@@@@@@....@@@@@@@@@@@@",
"                            ....                                ",
"                            ....                                ",
"                            ....                                ",
"                            ....                                ",
"++++++++++++++++++++++++++++....++++++++++++++++++++++++++++++++",
"++++++++++++++++++++++++++++....++++++++++++++++++++++++++++++++",
"++++++++++++++++++++++++++++....++++++++++++++++++++++++++++++++",
"++++++++++++++++++++++++++++....++++++++++++++++++++++++++++++++",
"++++@@@@@@@@@@@@@@@@@@@@++++....++++@@@@@@@@@@@@@@@@@@@@@@@@++++",
"++++@@@@@@@@@@@@@@@@@@@@++++....++++@@@@@@@@@@@@@@@@@@@@@@@@++++",
"++++@@@@@@@@@@@@@@@@@@@@++++....++++@@@@@@@@@@@@@@@@@@@@@@@@++++",
"++++@@@@@@@@@@@@@@@@@@@@++++....++++@@@@@@@@@@@@@@@@@@@@@@@@++++",
"@@@@@@@@@@@@@@@@@@@@@@@@@@@@....@@@@@@@@@@@@@@@@@@@@@@@@@@@@@@@@",
"@@@@@@@@@@@@@@@@@@@@@@@@@@@@....@@@@@@@@@@@@@@@@@@@@@@@@@@@@@@@@",
"@@@@@@@@@@@@@@@@@@@@@@@@@@@@....@@@@@@@@@@@@@@@@@@@@@@@@@@@@@@@@",
"@@@@@@@@@@@@@@@@@@@@@@@@@@@@....@@@@@@@@@@@@@@@@@@@@@@@@@@@@@@@@",
"                ....                            ....            ",
"                ....                            ....            ",
"                ....                            ....            ",
"                ....                            ....            ",
"++++++++++++++++....++++++++++++++++++++++++++++....++++++++++++",
"++++++++++++++++....++++++++++++++++++++++++++++....++++++++++++",
"++++++++++++++++....++++++++++++++++++++++++++++....++++++++++++",
"++++++++++++++++....++++++++++++++++++++++++++++....++++++++++++",
"++++@@@@@@@@++++....++++@@@@@@@@@@@@@@@@@@@@++++....++++@@@@@@@@",
"++++@@@@@@@@++++....++++@@@@@@@@@@@@@@@@@@@@++++....++++@@@@@@@@",
"++++@@@@@@@@++++....++++@@@@@@@@@@@@@@@@@@@@++++....++++@@@@@@@@",
"++++@@@@@@@@++++....++++@@@@@@@@@@@@@@@@@@@@++++....++++@@@@@@@@",
"@@@@@@@@@@@@@@@@....@@@@@@@@@@@@@@@@@@@@@@@@@@@@....@@@@@@@@@@@@",
"@@@@@@@@@@@@@@@@....@@@@@@@@@@@@@@@@@@@@@@@@@@@@....@@@@@@@@@@@@",
"@@@@@@@@@@@@@@@@....@@@@@@@@@@@@@@@@@@@@@@@@@@@@....@@@@@@@@@@@@",
"@@@@@@@@@@@@@@@@....@@@@@@@@@@@@@@@@@@@@@@@@@@@@....@@@@@@@@@@@@",
"................................................................",
"................................................................",
"................................................................",
"................................................................"};
